# xmcd CD database file
#
# Track frame offsets:
#	150
#	17349
#	31996
#	46801
#	64799
#	80384
#	94735
#	113061
#	130310
#	147848
#	163384
#	179940
#	196532
#
# Disc length: 2814 seconds
#
# Revision: 2
# Processed by: cddbd v1.5.2PL0 Copyright (c) Steve Scherf et al.
# Submitted via: CDex 1.51
#
DISCID=aa0afc0d
DTITLE=Ashley Monroe - The Blade
DYEAR=2015
DGENRE=Country
TTITLE0=On To Something Good
TTITLE1=I Buried Your Love Alive
TTITLE2=Bombshell
TTITLE3=Weight Of The Load
TTITLE4=The Blade
TTITLE5=Winning Streak
TTITLE6=From Time To Time
TTITLE7=If Love Was Fair
TTITLE8=Has Anybody Ever Told You
TTITLE9=Dixie
TTITLE10=If The Devil Don't Want Me
TTITLE11=Mayflowers
TTITLE12=I'm Good At Leavin'
EXTD=YEAR: 2015
EXTT0=
EXTT1=
EXTT2=
EXTT3=
EXTT4=
EXTT5=
EXTT6=
EXTT7=
EXTT8=
EXTT9=
EXTT10=
EXTT11=
EXTT12=
PLAYORDER=
